HIERARCHY
ROOT Hips
{
	OFFSET 0.000000 0.000000 0.000000
	CHANNELS 6 Xposition Yposition Zposition Xrotation Yrotation Zrotation
	JOINT LeftUpLeg_virtual
	{
		OFFSET 0.000000 0.000000 0.000000
		CHANNELS 3 Xrotation Yrotation Zrotation
		JOINT LeftUpLeg
		{
			OFFSET 13.026900 -6.336304 -1.092800
			CHANNELS 3 Xrotation Yrotation Zrotation
			JOINT LeftLeg
			{
				OFFSET 0.524474 -46.096886 9.782700
				CHANNELS 3 Xrotation Yrotation Zrotation
				JOINT LeftFoot
				{
					OFFSET -0.524474 -53.427422 -12.948200
					CHANNELS 3 Xrotation Yrotation Zrotation
					JOINT LeftToeBase
					{
						OFFSET 0.192200 -14.009700 16.364100
						CHANNELS 3 Xrotation Yrotation Zrotation
						JOINT LeftToe_End
						{
							OFFSET -1.784700 -0.561700 9.474800
							CHANNELS 3 Xrotation Yrotation Zrotation
							End Site
							{
								OFFSET 0 0 0
							}
						}
					}
				}
			}
		}
	}
	JOINT RightUpLeg_virtual
	{
		OFFSET 0.000000 0.000000 0.000000
		CHANNELS 3 Xrotation Yrotation Zrotation
		JOINT RightUpLeg
		{
			OFFSET -12.883000 -6.336304 -1.092800
			CHANNELS 3 Xrotation Yrotation Zrotation
			JOINT RightLeg
			{
				OFFSET -0.524587 -46.096825 9.782800
				CHANNELS 3 Xrotation Yrotation Zrotation
				JOINT RightFoot
				{
					OFFSET 0.524587 -53.427383 -12.948300
					CHANNELS 3 Xrotation Yrotation Zrotation
					JOINT RightToeBase
					{
						OFFSET -0.192200 -14.009700 16.364100
						CHANNELS 3 Xrotation Yrotation Zrotation
						JOINT RightToe_End
						{
							OFFSET 1.784700 -0.561700 9.474800
							CHANNELS 3 Xrotation Yrotation Zrotation
							End Site
							{
								OFFSET 0 0 0
							}
						}
					}
				}
			}
		}
	}
	JOINT Spine_virtual
	{
		OFFSET 0.000000 0.000000 0.000000
		CHANNELS 3 Xrotation Yrotation Zrotation
		JOINT Spine
		{
			OFFSET 0.072000 7.257294 -0.789700
			CHANNELS 3 Xrotation Yrotation Zrotation
			JOINT Spine1
			{
				OFFSET 0.000000 12.508769 -0.658067
				CHANNELS 3 Xrotation Yrotation Zrotation
				JOINT Spine1_split
				{
					OFFSET 0.000000 12.508769 -0.658067
					CHANNELS 3 Xrotation Yrotation Zrotation
					JOINT Spine2
					{
						OFFSET 0.000000 12.508769 -0.658067
						CHANNELS 3 Xrotation Yrotation Zrotation
						JOINT Neck_virtual
						{
							OFFSET 0.000000 0.000000 0.000000
							CHANNELS 3 Xrotation Yrotation Zrotation
							JOINT Neck
							{
								OFFSET 0.000000 14.033295 7.520400
								CHANNELS 3 Xrotation Yrotation Zrotation
								JOINT Head
								{
									OFFSET 0.000000 8.198502 5.703100
									CHANNELS 3 Xrotation Yrotation Zrotation
									JOINT HeadTop_End
									{
										OFFSET 0.000000 17.760803 13.332701
										CHANNELS 3 Xrotation Yrotation Zrotation
										End Site
										{
											OFFSET 0 0 0
										}
									}
								}
							}
						}
						JOINT LeftShoulder_virtual
						{
							OFFSET 0.000000 0.000000 0.000000
							CHANNELS 3 Xrotation Yrotation Zrotation
							JOINT LeftShoulder
							{
								OFFSET 6.292450 5.785301 -0.669000
								CHANNELS 3 Xrotation Yrotation Zrotation
								JOINT LeftShoulder_split
								{
									OFFSET 6.292450 5.785301 -0.669000
									CHANNELS 3 Xrotation Yrotation Zrotation
									JOINT LeftArm
									{
										OFFSET 13.907140 -6.093903 1.965100
										CHANNELS 3 Xrotation Yrotation Zrotation
										JOINT LeftForeArm
										{
											OFFSET 34.140198 0.000000 0.000000
											CHANNELS 3 Xrotation Yrotation Zrotation
											JOINT LeftHand
											{
												OFFSET 40.960209 0.000000 0.000000
												CHANNELS 3 Xrotation Yrotation Zrotation
												End Site
												{
													OFFSET 0 0 0
												}
											}
										}
									}
								}
							}
						}
						JOINT RightShoulder_virtual
						{
							OFFSET 0.000000 0.000000 0.000000
							CHANNELS 3 Xrotation Yrotation Zrotation
							JOINT RightShoulder
							{
								OFFSET -6.292450 5.785301 -0.669000
								CHANNELS 3 Xrotation Yrotation Zrotation
								JOINT RightShoulder_split
								{
									OFFSET -6.292450 5.785301 -0.669000
									CHANNELS 3 Xrotation Yrotation Zrotation
									JOINT RightArm
									{
										OFFSET -13.907140 -6.093903 1.965100
										CHANNELS 3 Xrotation Yrotation Zrotation
										JOINT RightForeArm
										{
											OFFSET -34.140198 0.000000 0.000000
											CHANNELS 3 Xrotation Yrotation Zrotation
											JOINT RightHand
											{
												OFFSET -40.960209 0.000000 0.000000
												CHANNELS 3 Xrotation Yrotation Zrotation
												End Site
												{
													OFFSET 0 0 0
												}
											}
										}
									}
								}
							}
						}
					}
				}
			}
		}
	}
}
MOTION
Frames: 9
Frame Time: 0.03333333
12.750558 83.451668 -4.760281 0.000000 0.000000 0.000000 23.316763 -83.676559 24.900144 -38.938605 -14.424157 29.651788 45.869266 -10.529674 9.772494 -7.849442 -3.458628 -26.953173 -0.572271 0.649282 -2.575604 0.000000 0.000000 0.000000 12.206565 -82.678169 15.291752 -18.604430 12.479380 -33.667433 44.704654 14.013274 -8.969459 -15.600482 -1.996647 32.730529 -10.832175 1.260734 0.665344 0.000000 0.000000 0.000000 26.349521 -78.692508 27.015476 1.365990 4.529210 3.033104 0.345321 3.383662 1.210272 1.576268 -1.421204 0.789263 0.000000 0.000000 0.000000 0.877787 2.941673 0.960057 -3.115114 7.729215 -1.139979 2.722122 40.727322 -4.945174 0.000000 0.000000 0.000000 0.896491 3.410660 1.083333 1.544982 11.532680 -10.477974 -3.492163 -2.144190 -2.018884 -10.168672 10.351676 -65.834411 -179.109840 -63.892704 -176.740721 0.000000 0.000000 0.000000 1.888387 3.581907 0.631820 1.252986 8.934097 10.401398 0.411308 3.436444 2.338808 -13.118927 35.184162 47.671401 -179.036620 70.751013 178.924114 0.000000 0.000000 0.000000 
12.714597 82.550125 -4.819504 0.000000 0.000000 0.000000 15.471560 -83.736712 17.121910 -38.939161 -13.642857 28.891065 44.804272 -12.025339 10.980057 -8.554527 -5.445236 -26.986959 -1.694375 0.800785 -2.524948 0.000000 0.000000 0.000000 7.392962 -81.386963 10.362711 -17.390654 10.394143 -33.355406 45.564257 12.491132 -8.887194 -15.403887 -3.390201 31.715973 -10.644549 1.030573 1.679076 0.000000 0.000000 0.000000 23.478575 -77.951631 23.765346 0.984925 4.747410 2.937380 0.266985 3.503682 1.213163 1.553356 -2.296526 0.813741 0.000000 0.000000 0.000000 0.719985 3.089999 0.934627 -2.313553 7.142328 -1.275274 3.117394 39.392843 -4.664437 0.000000 0.000000 0.000000 0.876077 3.453089 1.103341 1.364794 11.399103 -9.294922 -2.899302 -1.730149 -3.150621 -8.399102 7.747000 -66.151010 -179.764077 -63.526148 -177.267916 0.000000 0.000000 0.000000 1.624440 3.674639 0.657834 1.304259 8.353358 9.586715 0.174173 4.295018 2.434781 -11.867158 33.854297 47.480880 -178.303741 69.478631 178.072471 0.000000 0.000000 0.000000 
12.539070 85.986153 -5.030861 0.000000 0.000000 0.000000 7.572818 -81.139751 9.275880 -38.961117 -12.130787 27.068702 38.867099 -14.743587 11.187873 -5.559149 -9.639168 -28.247410 -2.102004 0.776178 -1.956845 0.000000 0.000000 0.000000 5.456633 -78.454121 8.416718 -16.781877 7.812461 -32.182035 44.418267 11.420255 -8.706972 -11.060566 -3.246455 31.564087 -14.002785 0.532292 2.896840 0.000000 0.000000 0.000000 18.041094 -76.032928 18.157286 0.618218 4.748391 2.830460 0.076587 3.514490 1.120359 1.221183 -3.091229 0.859826 0.000000 0.000000 0.000000 0.566045 3.121187 0.842605 -1.492318 6.589805 -1.376193 3.430705 37.391778 -3.931548 0.000000 0.000000 0.000000 0.751767 3.415511 1.037588 1.152610 10.759425 -7.783255 -1.881827 -1.065449 -3.818961 -6.662981 3.788380 -64.565771 179.812079 -62.851319 -177.827295 0.000000 0.000000 0.000000 1.304531 3.627037 0.605395 1.289400 7.781384 8.618682 -0.155962 4.908593 2.383632 -10.091844 31.340463 46.796638 -178.140035 67.124784 177.768760 0.000000 0.000000 0.000000 
12.284651 92.897255 -5.451668 0.000000 0.000000 0.000000 4.632376 -76.504826 6.308189 -38.353052 -9.757315 24.856790 29.668689 -17.030395 9.779704 0.369337 -14.370402 -28.867900 -1.619041 0.619070 -1.114767 0.000000 0.000000 0.000000 4.665106 -74.322744 7.642046 -16.840045 5.206827 -30.345345 42.078921 11.015352 -8.549522 -4.522546 -1.769042 32.081296 -18.953329 -0.242103 3.949848 0.000000 0.000000 0.000000 12.399162 -72.979383 12.702536 0.396007 4.531100 2.741045 -0.135310 3.427256 0.966554 0.735697 -3.150175 0.941906 0.000000 0.000000 0.000000 0.410292 3.043200 0.721677 -0.854235 6.099054 -1.494881 3.542669 34.910921 -2.923608 0.000000 0.000000 0.000000 0.549474 3.321377 0.926385 0.989002 9.659878 -6.375755 -0.752082 -0.340277 -4.047425 -5.160502 -0.811724 -61.648755 179.764527 -62.122381 -178.167875 0.000000 0.000000 0.000000 1.022926 3.477546 0.491330 1.194759 7.309971 7.601742 -0.643274 5.081598 2.136620 -8.005438 27.970072 45.487178 -178.407970 64.736820 177.876281 0.000000 0.000000 0.000000 
11.861221 101.601967 -6.009163 0.000000 0.000000 0.000000 4.306818 -71.174212 5.833190 -36.733707 -6.330023 22.723904 20.426570 -16.733644 7.434772 6.681079 -16.766856 -26.761059 -0.497945 0.414548 -0.459613 0.000000 0.000000 0.000000 4.095076 -69.341966 7.135736 -17.297698 2.441393 -27.786871 39.768011 10.242302 -8.269974 0.635305 -0.434720 31.327513 -21.609151 -1.058897 4.619703 0.000000 0.000000 0.000000 7.929397 -69.163062 8.740851 0.362152 4.139016 2.699164 -0.245739 3.264963 0.789847 0.300550 -2.514850 0.946788 0.000000 0.000000 0.000000 0.257776 2.868553 0.601137 -0.575523 5.642625 -1.664231 3.402212 32.272200 -1.876300 0.000000 0.000000 0.000000 0.385867 3.171154 0.796898 0.953542 8.218446 -5.561437 -0.014074 0.152531 -3.885617 -3.949299 -5.376202 -58.220369 -179.942768 -61.592904 -178.313686 0.000000 0.000000 0.000000 0.867192 3.285410 0.367697 1.052869 7.063048 6.671790 -0.979696 4.975530 1.554400 -6.048706 24.164752 43.883521 -178.878802 63.165241 178.212271 0.000000 0.000000 0.000000 
11.334636 110.105713 -6.606255 0.000000 0.000000 0.000000 4.526903 -66.389480 5.933574 -33.696776 -1.972340 20.708131 13.642766 -13.605363 5.620296 10.556640 -15.168383 -21.916180 0.198583 0.224169 -0.147589 0.000000 0.000000 0.000000 3.120780 -64.279457 6.412505 -18.533040 -0.032078 -24.795349 38.251518 8.500123 -7.818518 2.206493 -0.380559 28.020161 -18.799158 -1.478924 4.822615 0.000000 0.000000 0.000000 4.848639 -64.905546 6.376012 0.588608 3.613015 2.609039 -0.174391 3.035269 0.608750 0.507582 -1.718399 0.889032 0.000000 0.000000 0.000000 0.137109 2.591738 0.503900 -0.787926 5.275504 -1.932257 2.943707 29.616257 -0.922584 0.000000 0.000000 0.000000 0.331797 2.932574 0.668176 1.034654 6.601199 -5.493479 0.115213 0.326055 -3.482960 -3.281440 -9.233164 -55.221994 -179.541959 -61.727561 -178.416439 0.000000 0.000000 0.000000 0.873459 3.052299 0.246418 0.880563 7.039800 5.942941 -1.135714 4.711747 0.771847 -4.627330 20.409551 42.317380 -179.382733 62.957924 178.657436 0.000000 0.000000 0.000000 
10.756114 116.848824 -7.064690 0.000000 0.000000 0.000000 4.721954 -62.751967 6.326236 -29.359326 2.478175 19.078486 10.675610 -9.578422 4.720527 10.342751 -10.811313 -17.064157 -0.449493 0.085058 0.013755 0.000000 0.000000 0.000000 1.985027 -59.244747 5.736555 -20.977138 -1.581533 -22.160764 37.705926 6.029336 -7.076607 0.621081 -0.809848 23.012137 -11.670288 -1.340865 4.574055 0.000000 0.000000 0.000000 3.122322 -60.360171 5.450139 0.928269 2.994972 2.365363 0.124579 2.713743 0.428862 1.109963 -0.873808 0.777868 0.000000 0.000000 0.000000 0.111830 2.229527 0.443427 -1.355933 4.904545 -2.248001 2.231792 27.085484 -0.187632 0.000000 0.000000 0.000000 0.417201 2.585998 0.535253 1.168431 4.970926 -6.126291 -0.499444 0.274552 -2.870303 -3.386571 -11.940021 -53.201812 -179.201378 -62.628491 -178.597357 0.000000 0.000000 0.000000 0.997798 2.768635 0.131883 0.756949 7.139650 5.541323 -1.007236 4.395547 -0.185970 -3.959561 17.077237 41.262436 -179.835971 64.297591 179.159332 0.000000 0.000000 0.000000 
10.090238 121.221001 -7.415257 0.000000 0.000000 0.000000 4.519396 -60.078453 6.705805 -24.962702 6.162945 17.888373 11.980366 -6.166539 4.278035 7.272254 -5.851061 -13.565489 -2.182731 0.003762 -0.079721 0.000000 0.000000 0.000000 0.994487 -54.934494 5.362710 -24.846799 -1.674434 -20.361146 37.016777 3.664391 -6.263212 -0.975423 -0.383177 18.539842 -4.347637 -0.854957 3.699363 0.000000 0.000000 0.000000 2.627437 -55.658149 5.471464 1.224501 2.296268 1.912002 0.522645 2.305217 0.246447 1.657730 -0.546405 0.507151 0.000000 0.000000 0.000000 0.209170 1.795680 0.372032 -2.146902 4.554249 -2.523859 1.384115 24.673481 0.366598 0.000000 0.000000 0.000000 0.631358 2.134924 0.369917 1.282657 3.490651 -7.103069 -1.629142 0.125964 -2.094616 -4.394626 -13.539196 -52.337615 -179.094363 -63.941690 -178.996199 0.000000 0.000000 0.000000 1.185234 2.412455 -0.000054 0.680138 7.300056 5.503876 -0.617563 4.128617 -1.057853 -4.112050 14.338679 41.026180 179.747998 66.784620 179.747233 0.000000 0.000000 0.000000 
9.519751 123.034256 -7.669865 0.000000 0.000000 0.000000 3.751863 -57.139785 6.588476 -21.497305 8.363270 17.404492 17.051075 -4.047932 3.855896 3.786486 -1.555623 -11.821809 -3.379844 -0.032692 -0.565793 0.000000 0.000000 0.000000 0.525336 -51.362797 5.302811 -29.830585 0.108094 -19.531160 34.897912 2.785091 -5.695814 -0.319798 1.668354 16.848719 0.045232 -0.222921 2.289232 0.000000 0.000000 0.000000 2.926381 -50.889332 5.815254 1.380124 1.518699 1.221595 0.906740 1.827718 0.058340 2.000335 -0.574413 0.191756 0.000000 0.000000 0.000000 0.457300 1.314475 0.262942 -2.943994 4.237662 -2.673897 0.514159 22.213548 0.801061 0.000000 0.000000 0.000000 0.865597 1.626983 0.152422 1.319051 2.258575 -8.005666 -2.908614 -0.084970 -1.271754 -6.250771 -14.308627 -52.526149 -179.317874 -65.121756 -179.605903 0.000000 0.000000 0.000000 1.371170 1.970616 -0.187051 0.638133 7.333899 5.796905 -0.157968 3.822850 -1.567758 -5.068836 12.201128 41.540193 179.417923 69.715673 -179.658496 0.000000 0.000000 0.000000 
